<svg width="100" height="28" viewBox="0 0 100 28" fill="none" xmlns="http://www.w3.org/2000/svg">
<path d="M0 26.8798C0.0820142 26.8798 0.205036 26.8389 0.369064 26.7569C0.533092 26.675 0.697121 26.5657 0.861149 26.4291C1.02518 26.2925 1.17554 26.1423 1.31223 25.9784C1.44892 25.7872 1.51726 25.5823 1.51726 25.3638V3.52388C1.51726 3.30535 1.44892 3.11413 1.31223 2.95023C1.17554 2.75901 1.01151 2.60877 0.820142 2.4995C0.628776 2.36292 0.451078 2.25365 0.28705 2.1717C0.123021 2.08974 0.0273381 2.03511 0 2.00779H4.83884V4.63022C4.92085 4.439 5.04387 4.23412 5.2079 4.01559C5.59064 3.49657 6.16474 3.00486 6.9302 2.54047C7.72301 2.04877 8.84387 1.80292 10.2928 1.80292C11.0309 1.80292 11.728 1.91219 12.3841 2.13072C13.0403 2.34926 13.628 2.6634 14.1475 3.07315C14.6942 3.48291 15.1453 3.97461 15.5007 4.54827C15.8561 5.09461 16.0885 5.70924 16.1978 6.39216C16.3072 7.15703 16.2798 7.85361 16.1158 8.4819C15.9518 9.08287 15.6921 9.62921 15.3367 10.1209C14.9813 10.5853 14.5575 10.9951 14.0654 11.3502C13.6007 11.7053 13.1086 12.0194 12.5892 12.2926C13.9014 12.156 15.159 12.3336 16.3618 12.8253C17.1273 13.1258 17.8108 13.5628 18.4122 14.1365C19.0136 14.6828 19.492 15.3248 19.8474 16.0623C20.2302 16.7999 20.4899 17.5921 20.6266 18.4389C20.7633 19.2857 20.7496 20.1462 20.5856 21.0204C20.2849 22.714 19.4647 24.0799 18.1251 25.1179C16.6215 26.2925 14.6395 26.8798 12.1791 26.8798H0ZM11.646 26.4291C13.2863 26.4291 14.5575 26.0467 15.4597 25.2818C16.3618 24.5169 16.9496 23.5882 17.223 22.4955C17.5237 21.3755 17.551 20.2009 17.305 18.9716C17.059 17.7423 16.5942 16.6497 15.9108 15.6936C15.2546 14.7102 14.4208 13.9863 13.4093 13.5219C12.4252 13.0575 11.3316 13.0438 10.1288 13.4809C9.49998 13.6994 8.88487 14.0409 8.28344 14.5053C7.70934 14.9424 7.18991 15.4341 6.72517 15.9804C6.26042 16.5267 5.86402 17.1004 5.53596 17.7014C5.2079 18.275 4.97553 18.8077 4.83884 19.2994V26.4701L11.646 26.4291ZM6.06905 3.72876C5.68632 4.08388 5.39927 4.439 5.2079 4.79412C5.04387 5.14924 4.92085 5.44973 4.83884 5.69558V17.9882C5.19423 17.196 5.69999 16.4311 6.3561 15.6936C7.01222 14.9287 7.75034 14.2731 8.57049 13.7268C8.92588 13.5082 9.28128 13.317 9.63667 13.1531C9.99207 12.9892 10.3611 12.839 10.7439 12.7024C11.6734 12.3472 12.3158 11.7736 12.6712 10.9814C13.0539 10.1892 13.218 9.32873 13.1633 8.39995C13.1086 7.44386 12.8626 6.51508 12.4252 5.61363C12.0151 4.71217 11.482 3.98827 10.8259 3.44193C10.1698 2.89559 9.41797 2.60877 8.57049 2.58145C7.75034 2.55413 6.91653 2.93657 6.06905 3.72876Z" fill="#252525"/>
<path d="M30.7406 8.27703C31.9981 8.16776 33.1737 8.26337 34.2672 8.56386C35.3607 8.83702 36.3039 9.31507 37.0967 9.99799C37.9168 10.6536 38.5593 11.4868 39.024 12.4975C39.4888 13.5082 39.7212 14.6555 39.7212 15.9394V25.4047C39.7212 25.6233 39.7758 25.8145 39.8852 25.9784C40.0219 26.1423 40.1722 26.2925 40.3363 26.4291C40.5003 26.5384 40.6507 26.634 40.7873 26.7159C40.9514 26.7979 41.0607 26.8525 41.1154 26.8798H36.3996V22.4545C36.0168 23.2194 35.5111 23.8886 34.8823 24.4623C34.2535 25.036 33.5838 25.5277 32.873 25.9374C32.1895 26.3198 31.5061 26.6203 30.8226 26.8389C30.1392 27.0574 29.5377 27.1667 29.0183 27.1667H28.7312C27.8018 27.1667 26.9816 27.0301 26.2708 26.7569C25.56 26.4837 24.9586 26.1286 24.4665 25.6916C23.9744 25.2272 23.5917 24.7082 23.3183 24.1345C23.0723 23.5608 22.9219 22.9872 22.8672 22.4135C22.7032 20.6926 23.1953 19.3267 24.3435 18.316C25.519 17.278 27.2823 16.6087 29.6334 16.3082C31.0823 16.1443 32.3535 15.9394 33.4471 15.6936C34.5679 15.4204 35.3334 14.956 35.7435 14.3004C36.1535 13.6721 36.1672 12.7707 35.7845 11.596C35.3744 10.5307 34.7593 9.75214 33.9392 9.26043C33.1463 8.74141 32.1075 8.55019 30.8226 8.68678C30.0571 8.76873 29.4284 8.97361 28.9363 9.30141C28.4442 9.6019 28.0615 9.99799 27.7881 10.4897C27.5147 10.9814 27.3233 11.5687 27.214 12.2516C27.1046 12.9346 27.05 13.6858 27.05 14.5053L24.2205 12.9892C24.9859 11.5687 25.8471 10.476 26.8039 9.71116C27.7881 8.91897 29.1003 8.44093 30.7406 8.27703ZM28.9773 26.7569C29.6334 26.7296 30.3852 26.5794 31.2327 26.3062C32.0802 26.0057 32.8866 25.555 33.6521 24.954C34.4176 24.353 35.06 23.6155 35.5794 22.7413C36.1262 21.8399 36.3996 20.7745 36.3996 19.5453V15.9804C36.3996 15.6526 36.3996 15.3384 36.3996 15.038C36.3996 14.7102 36.3722 14.396 36.3176 14.0955C36.2902 14.2048 36.2219 14.3414 36.1125 14.5053C35.7571 15.0789 35.1967 15.516 34.4312 15.8165C33.6931 16.117 32.8046 16.3355 31.7658 16.4721C30.2895 16.636 29.114 17.0184 28.2392 17.6194C27.3643 18.1931 26.7219 18.8623 26.3118 19.6272C25.9018 20.3921 25.6967 21.1979 25.6967 22.0448C25.6967 22.8916 25.8334 23.6701 26.1068 24.3803C26.4075 25.0906 26.8039 25.6779 27.296 26.1423C27.8154 26.5794 28.3759 26.7842 28.9773 26.7569Z" fill="#252525"/>
<path d="M57.3392 20.4467C58.2413 21.3482 58.5967 22.2087 58.4053 23.0282C58.2413 23.8477 57.7219 24.5716 56.8471 25.1999C55.9996 25.8008 54.9061 26.2789 53.5665 26.634C52.2269 26.9618 50.8464 27.0847 49.4248 27.0028C48.0032 26.8935 46.6363 26.5384 45.3241 25.9374C44.0392 25.3364 43.014 24.4213 42.2485 23.1921L44.873 22.0448C44.791 23.3286 45.0917 24.3121 45.7751 24.995C46.4586 25.6779 47.2924 26.1423 48.2766 26.3881C49.2607 26.6067 50.2996 26.634 51.3931 26.4701C52.4866 26.3062 53.4025 26.033 54.1406 25.6506C54.9061 25.2408 55.3708 24.7491 55.5348 24.1755C55.7262 23.6018 55.4255 23.0008 54.6327 22.3726C53.7852 21.7169 52.9104 21.1296 52.0082 20.6106C51.1061 20.0916 50.3133 19.6272 49.6298 19.2175C49.001 18.8623 48.3723 18.4936 47.7435 18.1111C47.1147 17.7287 46.5133 17.3462 45.9392 16.9638C45.3924 16.5814 44.8867 16.2126 44.4219 15.8575C43.9845 15.5023 43.6291 15.2019 43.3557 14.956C42.4536 14.0546 42.0845 13.1941 42.2485 12.3746C42.4399 11.5277 42.9593 10.8038 43.8068 10.2029C44.6816 9.57458 45.7888 9.09653 47.1284 8.76873C48.4679 8.44093 49.8485 8.33166 51.2701 8.44093C52.6917 8.52288 54.0449 8.86434 55.3298 9.46531C56.642 10.039 57.6809 10.9404 58.4463 12.1697L55.8219 13.317C55.8766 12.3609 55.6989 11.5687 55.2888 10.9404C54.9061 10.3121 54.3866 9.83409 53.7305 9.50629C53.1018 9.15117 52.3773 8.93263 51.5572 8.85068C50.737 8.76873 49.9305 8.78239 49.1377 8.89166C48.3723 8.97361 47.6478 9.15117 46.9644 9.42434C46.3082 9.6975 45.8025 10.0253 45.4471 10.4077C45.119 10.7629 44.9687 11.1726 44.996 11.637C45.0507 12.1014 45.4061 12.5658 46.0622 13.0302C46.937 13.6585 47.8118 14.2458 48.6867 14.7921C49.5888 15.3111 50.3816 15.7619 51.0651 16.1443C51.6665 16.4994 52.2816 16.8819 52.9104 17.2916C53.5665 17.674 54.1679 18.0565 54.7147 18.4389C55.2888 18.8214 55.7946 19.1901 56.232 19.5453C56.6967 19.9004 57.0658 20.2009 57.3392 20.4467Z" fill="#252525"/>
<path d="M77.4551 25.5277C77.9198 26.0467 78.3162 26.4018 78.6443 26.593C78.9997 26.7842 79.2457 26.8935 79.3824 26.9208H72.6162C72.6162 26.9208 72.6572 26.8798 72.7393 26.7979C72.8486 26.7159 72.9306 26.6203 72.9853 26.5111C73.0673 26.3745 73.1083 26.2106 73.1083 26.0194C73.1083 25.8281 73.0263 25.6233 72.8623 25.4047L65.8501 17.2097C65.686 17.5101 65.522 17.8243 65.358 18.1521C65.2213 18.4799 65.0846 18.794 64.9479 19.0945V25.4047C64.9479 25.6233 65.0026 25.8145 65.1119 25.9784C65.2486 26.1423 65.3853 26.2925 65.522 26.4291C65.686 26.5384 65.8364 26.634 65.9731 26.7159C66.1371 26.7979 66.2465 26.8525 66.3011 26.8798H60.1501C60.2321 26.8525 60.3551 26.7979 60.5191 26.7159C60.6832 26.634 60.8472 26.5384 61.0112 26.4291C61.1752 26.2925 61.3119 26.1423 61.4213 25.9784C61.558 25.8145 61.6263 25.6233 61.6263 25.4047V1.51609C61.6263 1.29755 61.558 1.10634 61.4213 0.942434C61.2846 0.751216 61.1206 0.600973 60.9292 0.491705C60.7378 0.355121 60.5601 0.245853 60.3961 0.163902C60.2321 0.0819521 60.1364 0.0273182 60.1091 0H64.9479V18.0701C65.6313 16.595 66.3968 15.1336 67.2443 13.6858C68.1191 12.238 69.076 11.0224 70.1148 10.039C71.181 9.05556 72.3292 8.41361 73.5594 8.11312C74.7896 7.78532 76.1428 8.00386 77.6191 8.76873L77.25 11.8419C76.922 11.3502 76.5119 10.9268 76.0198 10.5716C75.6097 10.2712 75.0903 10.0117 74.4615 9.79311C73.8328 9.57458 73.1083 9.51995 72.2882 9.62921C71.4133 9.73848 70.5795 10.2165 69.7867 11.0634C68.9939 11.9102 68.2421 12.9346 67.5313 14.1365L77.4551 25.5277Z" fill="#252525"/>
<path d="M85.4915 25.4047C85.4915 25.6233 85.5462 25.8281 85.6555 26.0194C85.7922 26.1833 85.9289 26.3335 86.0656 26.4701C86.2296 26.6067 86.38 26.7159 86.5167 26.7979C86.6807 26.8798 86.7901 26.9208 86.8447 26.9208H80.6527C80.7347 26.9208 80.8577 26.8798 81.0217 26.7979C81.1857 26.7159 81.3498 26.6067 81.5138 26.4701C81.6778 26.3335 81.8282 26.1833 81.9649 26.0194C82.1016 25.8281 82.1699 25.6233 82.1699 25.4047V9.99799C82.1699 9.77946 82.1016 9.58824 81.9649 9.42434C81.8282 9.23312 81.6642 9.08288 81.4728 8.97361C81.2814 8.83702 81.1037 8.72776 80.9397 8.6458C80.7757 8.56385 80.68 8.50922 80.6527 8.4819H85.4915V25.4047ZM83.5642 7.21167C83.0721 7.21167 82.6483 7.04777 82.2929 6.71996C81.9649 6.36484 81.8009 5.94143 81.8009 5.44972C81.8009 4.98534 81.9649 4.57559 82.2929 4.22047C82.6483 3.86535 83.0721 3.68778 83.5642 3.68778C84.0289 3.68778 84.439 3.86535 84.7944 4.22047C85.1498 4.57559 85.3275 4.98534 85.3275 5.44972C85.3275 5.94143 85.1498 6.36484 84.7944 6.71996C84.439 7.04777 84.0289 7.21167 83.5642 7.21167Z" fill="#252525"/>
<path d="M87.8209 8.4819H90.2813V7.21167C90.2813 6.88386 90.1993 6.62435 90.0353 6.43313C89.8986 6.24192 89.7346 6.09167 89.5432 5.98241C89.3245 5.87314 89.0784 5.77753 88.8051 5.69558L95.0791 4.54827C95.0518 4.54827 94.9561 4.61656 94.7921 4.75315C94.6554 4.86241 94.4914 5.02631 94.3 5.24485C94.136 5.46338 93.972 5.72289 93.8079 6.02338C93.6712 6.32387 93.6029 6.67899 93.6029 7.08874V8.4819H96.1863V8.89166H93.6029V19.1765C93.6029 21.4984 93.6712 23.2877 93.8079 24.5442C93.972 25.8008 94.4367 26.4701 95.2022 26.552C95.5302 26.6067 95.872 26.5247 96.2273 26.3062C96.5827 26.0603 96.8835 25.7189 97.1295 25.2818C97.4029 24.8447 97.5943 24.3394 97.7036 23.7657C97.8403 23.1647 97.854 22.5228 97.7446 21.8399L100 24.0935C99.2072 25.2135 98.2504 26.0194 97.1295 26.5111C96.036 26.9755 94.9698 27.0437 93.9309 26.7159C92.9194 26.3881 92.0583 25.6096 91.3475 24.3803C90.6367 23.1238 90.2813 21.3345 90.2813 19.0126V8.89166H87.8209V8.4819Z" fill="#252525"/>
<g clip-path="url(#clip0_766_1568)">
<path d="M25.1997 1.79756C25.1997 1.79756 25.4829 1.38103 25.8546 1.31847C26.7731 1.16629 27.1504 1.93057 26.9988 2.49927C26.7271 3.51155 25.1997 4.39871 25.1997 4.39871C25.1997 4.39871 23.6723 3.51155 23.4006 2.49927C23.249 1.93057 23.6263 1.16629 24.5448 1.31847C24.9137 1.38103 25.1997 1.79756 25.1997 1.79756ZM21.9605 4.93246C21.9605 4.93246 22.3996 4.25188 22.9711 4.1493C24.3841 3.89877 24.9638 5.1489 24.7246 6.08001C24.3052 7.7399 21.9577 9.18956 21.9577 9.18956C21.9577 9.18956 19.6102 7.73736 19.1908 6.08001C18.9569 5.1489 19.5397 3.89877 20.9499 4.14958C21.5214 4.25188 21.9605 4.93246 21.9605 4.93246Z" fill="#252525"/>
</g>
<defs>
<clipPath id="clip0_766_1568">
<rect width="9.01807" height="9.01807" fill="white" transform="translate(18.5781 0.732422)"/>
</clipPath>
</defs>
</svg>
