<svg width="20" height="20" viewBox="0 0 20 20" fill="none" xmlns="http://www.w3.org/2000/svg">
<path d="M6.66634 18.3327C7.12658 18.3327 7.49967 17.9596 7.49967 17.4993C7.49967 17.0391 7.12658 16.666 6.66634 16.666C6.2061 16.666 5.83301 17.0391 5.83301 17.4993C5.83301 17.9596 6.2061 18.3327 6.66634 18.3327Z" stroke="#252525" stroke-opacity="0.72" stroke-linecap="round" stroke-linejoin="round"/>
<path d="M15.8333 18.3327C16.2936 18.3327 16.6667 17.9596 16.6667 17.4993C16.6667 17.0391 16.2936 16.666 15.8333 16.666C15.3731 16.666 15 17.0391 15 17.4993C15 17.9596 15.3731 18.3327 15.8333 18.3327Z" stroke="#252525" stroke-opacity="0.72" stroke-linecap="round" stroke-linejoin="round"/>
<path d="M1.70801 1.70898H3.37467L5.59134 12.059C5.67266 12.438 5.88357 12.7769 6.18777 13.0172C6.49197 13.2575 6.87043 13.3843 7.25801 13.3756H15.408C15.7873 13.375 16.1551 13.2451 16.4505 13.0072C16.746 12.7693 16.9515 12.4378 17.033 12.0673L18.408 5.87565H4.26634" stroke="#252525" stroke-opacity="0.72" stroke-linecap="round" stroke-linejoin="round"/>
</svg>
