<svg width="20" height="20" viewBox="0 0 20 20" fill="none" xmlns="http://www.w3.org/2000/svg">
<path d="M15.8327 5V16.6667C15.8327 17.1087 15.6571 17.5326 15.3445 17.8452C15.032 18.1577 14.608 18.3333 14.166 18.3333H5.83268C5.39065 18.3333 4.96673 18.1577 4.65417 17.8452C4.34161 17.5326 4.16602 17.1087 4.16602 16.6667V5" stroke="#252525" stroke-opacity="0.6" stroke-linecap="round" stroke-linejoin="round"/>
<path d="M2.5 5H17.5" stroke="#252525" stroke-opacity="0.6" stroke-linecap="round" stroke-linejoin="round"/>
<path d="M6.66602 4.99935V3.33268C6.66602 2.89065 6.84161 2.46673 7.15417 2.15417C7.46673 1.84161 7.89065 1.66602 8.33268 1.66602H11.666C12.108 1.66602 12.532 1.84161 12.8445 2.15417C13.1571 2.46673 13.3327 2.89065 13.3327 3.33268V4.99935" stroke="#252525" stroke-opacity="0.6" stroke-linecap="round" stroke-linejoin="round"/>
</svg>
