<svg width="20" height="20" viewBox="0 0 20 20" fill="none" xmlns="http://www.w3.org/2000/svg">
<path d="M8.00073 17.5222V11.4605H5.68073C5.56028 11.4605 5.44476 11.4127 5.35958 11.3275C5.27441 11.2423 5.22656 11.1268 5.22656 11.0064V8.60886C5.22656 8.48841 5.27441 8.37289 5.35958 8.28772C5.44476 8.20254 5.56028 8.15469 5.68073 8.15469H7.99156V5.83386C7.93628 5.28349 8.00217 4.72768 8.1846 4.20549C8.36703 3.6833 8.66158 3.20738 9.04755 2.81116C9.43353 2.41494 9.90157 2.10803 10.4188 1.91198C10.936 1.71594 11.4899 1.63552 12.0416 1.67636H13.9749C14.0965 1.67612 14.2133 1.7237 14.3001 1.80882C14.387 1.89394 14.4369 2.00978 14.4391 2.13136V4.16136C14.4364 4.28272 14.3864 4.39823 14.2996 4.48313C14.2129 4.56803 14.0963 4.61556 13.9749 4.61553H12.7666C11.4616 4.61553 11.2107 5.23386 11.2107 6.14303V8.15386H14.3132C14.3777 8.15172 14.4419 8.16366 14.5013 8.18884C14.5607 8.21402 14.6139 8.25183 14.6572 8.29966C14.7005 8.34748 14.7329 8.40417 14.752 8.46577C14.7712 8.52737 14.7767 8.59241 14.7682 8.65636L14.4874 11.063C14.4733 11.1733 14.4193 11.2745 14.3356 11.3476C14.2519 11.4207 14.1444 11.4606 14.0332 11.4597H11.2299V17.5214C11.2315 17.6285 11.2115 17.7348 11.1712 17.834C11.131 17.9333 11.0712 18.0234 10.9954 18.0991C10.9196 18.1748 10.8294 18.2345 10.7301 18.2747C10.6308 18.3149 10.5245 18.3347 10.4174 18.333H8.80323C8.69697 18.3334 8.59171 18.3125 8.49359 18.2718C8.39547 18.231 8.30646 18.1711 8.23176 18.0955C8.15705 18.0199 8.09814 17.9302 8.05848 17.8317C8.01881 17.7331 7.99918 17.6284 8.00073 17.5222Z" fill="#252525" fill-opacity="0.72"/>
</svg>
