<svg width="36" height="36" viewBox="0 0 36 36" fill="none" xmlns="http://www.w3.org/2000/svg">
<path d="M7.3786 31.7233C8.17755 31.7233 8.9765 31.3473 9.68146 30.6423C10.7155 29.6084 11.4674 28.2454 12.3133 26.6006C13.0653 25.1436 13.9582 23.5927 15.3212 21.8068C15.8852 22.1828 16.5431 22.4648 17.248 22.6058C16.9191 24.8146 16.4491 26.5066 15.9321 28.1045C15.3682 29.8904 14.9452 31.3473 14.9452 32.8042C14.9452 34.8251 16.1201 36 18 36C19.8799 36 21.0549 34.8251 21.0549 32.8042C21.0549 31.3473 20.6318 29.8904 20.0679 28.1045C19.551 26.5066 19.1279 24.8146 18.7989 22.6058C19.504 22.5117 20.1619 22.2297 20.7259 21.8068C22.0418 23.6397 22.9347 25.1436 23.6868 26.6006C24.5326 28.2454 25.2846 29.6084 26.3185 30.6423C27.0236 31.3473 27.8225 31.7233 28.6214 31.7233C29.3734 31.7233 30.0784 31.3943 30.7363 30.7364C31.3943 30.0783 31.7233 29.3734 31.7233 28.6215C31.7233 27.8225 31.3473 27.0235 30.6424 26.3186C29.6084 25.2846 28.2455 24.5327 26.6005 23.6867C25.1436 22.9348 23.6397 22.0418 21.8068 20.7258C22.2298 20.1619 22.4647 19.5039 22.6058 18.799C24.8146 19.1279 26.5066 19.551 28.1044 20.0679C29.8904 20.6319 31.3473 21.0549 32.8042 21.0549C34.8251 21.0549 36 19.8799 36 18C36 16.1201 34.8251 14.9452 32.8042 14.9452C31.3473 14.9452 29.8904 15.3682 28.1044 15.9322C26.5066 16.4491 24.8146 16.9191 22.6058 17.2481C22.4647 16.4961 22.1828 15.8851 21.8068 15.3212C23.5927 13.9582 25.1436 13.0653 26.6005 12.3134C28.2455 11.4674 29.6084 10.7154 30.6424 9.68149C31.3473 8.97651 31.7233 8.17755 31.7233 7.3786C31.7233 6.62664 31.3943 5.92167 30.7363 5.26372C30.0784 4.60575 29.3734 4.27677 28.6214 4.27677C27.8225 4.27677 27.0236 4.65275 26.3185 5.35771C25.2846 6.39165 24.5326 7.75457 23.6868 9.39949C22.9347 10.8564 22.0418 12.4073 20.6789 14.1932C20.1619 13.8173 19.504 13.5353 18.7989 13.3943C19.1279 11.1854 19.551 9.49346 20.0679 7.89557C20.6318 6.10967 21.0549 4.65275 21.0549 3.19582C21.0549 1.17493 19.8799 0 18 0C16.1201 0 14.9452 1.17493 14.9452 3.19582C14.9452 4.65275 15.3682 6.10967 15.9321 7.89557C16.4491 9.49346 16.9191 11.1854 17.248 13.4412C16.5431 13.5353 15.8852 13.8173 15.3212 14.2402C13.9582 12.4073 13.0653 10.8564 12.3133 9.39949C11.4674 7.75457 10.7155 6.39165 9.68146 5.35771C8.9765 4.65275 8.17755 4.27677 7.3786 4.27677C6.62664 4.27677 5.92167 4.60575 5.26371 5.26372C4.60575 5.92167 4.27677 6.62664 4.27677 7.3786C4.27677 8.17755 4.65274 8.97651 5.35771 9.68149C6.39165 10.7154 7.75458 11.4674 9.39948 12.3134C10.8564 13.0653 12.4073 13.9582 14.2402 15.3212C13.8173 15.8851 13.5353 16.5431 13.4413 17.2481C11.1854 16.9191 9.49344 16.4491 7.89557 15.9322C6.10966 15.3682 4.65274 14.9452 3.19583 14.9452C1.17494 14.9452 0 16.1201 0 18C0 19.8799 1.17494 21.0549 3.19583 21.0549C4.65274 21.0549 6.10966 20.6319 7.89557 20.0679C9.49344 19.551 11.1854 19.1279 13.3942 18.799C13.5353 19.5039 13.8173 20.1619 14.1932 20.6788C12.4073 22.0418 10.8564 22.9348 9.39948 23.6867C7.75458 24.5327 6.39165 25.2846 5.35771 26.3186C4.65274 27.0235 4.27677 27.8225 4.27677 28.6215C4.27677 29.3734 4.60575 30.0783 5.26371 30.7364C5.92167 31.3943 6.62664 31.7233 7.3786 31.7233Z" fill="#252525"/>
</svg>
