<svg width="20" height="20" viewBox="0 0 20 20" fill="none" xmlns="http://www.w3.org/2000/svg">
<path d="M13.3333 2.5C14.4384 2.5 15.4982 2.93899 16.2796 3.72039C17.061 4.50179 17.5 5.5616 17.5 6.66667V13.3333C17.5 14.4384 17.061 15.4982 16.2796 16.2796C15.4982 17.061 14.4384 17.5 13.3333 17.5H6.66667C5.5616 17.5 4.50179 17.061 3.72039 16.2796C2.93899 15.4982 2.5 14.4384 2.5 13.3333V6.66667C2.5 5.5616 2.93899 4.50179 3.72039 3.72039C4.50179 2.93899 5.5616 2.5 6.66667 2.5H13.3333ZM10 6.66667C9.11594 6.66667 8.2681 7.01786 7.64298 7.64298C7.01786 8.2681 6.66667 9.11594 6.66667 10C6.66667 10.8841 7.01786 11.7319 7.64298 12.357C8.2681 12.9821 9.11594 13.3333 10 13.3333C10.8841 13.3333 11.7319 12.9821 12.357 12.357C12.9821 11.7319 13.3333 10.8841 13.3333 10C13.3333 9.11594 12.9821 8.2681 12.357 7.64298C11.7319 7.01786 10.8841 6.66667 10 6.66667ZM10 8.33333C10.442 8.33333 10.866 8.50893 11.1785 8.82149C11.4911 9.13405 11.6667 9.55797 11.6667 10C11.6667 10.442 11.4911 10.866 11.1785 11.1785C10.866 11.4911 10.442 11.6667 10 11.6667C9.55797 11.6667 9.13405 11.4911 8.82149 11.1785C8.50893 10.866 8.33333 10.442 8.33333 10C8.33333 9.55797 8.50893 9.13405 8.82149 8.82149C9.13405 8.50893 9.55797 8.33333 10 8.33333ZM13.75 5.41667C13.529 5.41667 13.317 5.50446 13.1607 5.66074C13.0045 5.81702 12.9167 6.02899 12.9167 6.25C12.9167 6.47101 13.0045 6.68298 13.1607 6.83926C13.317 6.99554 13.529 7.08333 13.75 7.08333C13.971 7.08333 14.183 6.99554 14.3393 6.83926C14.4955 6.68298 14.5833 6.47101 14.5833 6.25C14.5833 6.02899 14.4955 5.81702 14.3393 5.66074C14.183 5.50446 13.971 5.41667 13.75 5.41667Z" fill="#252525" fill-opacity="0.72"/>
</svg>
